<svg width="31" height="31" viewBox="0 0 31 31" fill="none" xmlns="http://www.w3.org/2000/svg">
<path d="M12.1337 20H9.2312V11.3208H12.1337V20ZM10.6809 10.1368C9.75296 10.1368 9 9.42299 9 8.56116C9 7.69933 9.75296 7 10.6809 7C11.6088 7 12.3617 7.69933 12.3617 8.56116C12.3617 9.42299 11.6088 10.1368 10.6809 10.1368ZM22.9969 20H20.1006V15.775C20.1006 14.7681 20.0788 13.4768 18.5916 13.4768C17.0826 13.4768 16.8514 14.5708 16.8514 15.7025V20H13.952V11.3208H16.7358V12.5047H16.7764C17.1638 11.8228 18.1105 11.1031 19.5227 11.1031C22.4595 11.1031 23 12.8993 23 15.2324V20H22.9969Z" fill="black"/>
<circle r="14.5" transform="matrix(1 0 0 -1 15.5 15.5)" stroke="black" stroke-width="2"/>
</svg>
