<svg width="31" height="31" viewBox="0 0 31 31" fill="none" xmlns="http://www.w3.org/2000/svg">
<path d="M22.2526 12.489C22.2634 12.6422 22.2634 12.7953 22.2634 12.9484C22.2634 17.6187 18.7577 23 12.3503 23C10.3763 23 8.54252 22.4203 7 21.4141C7.28047 21.4469 7.55011 21.4578 7.84137 21.4578C9.47016 21.4578 10.9695 20.9 12.1669 19.9485C10.6352 19.9156 9.35152 18.8984 8.90925 17.4984C9.12501 17.5312 9.34073 17.5531 9.56728 17.5531C9.88008 17.5531 10.1929 17.5093 10.4842 17.4328C8.8877 17.1047 7.69033 15.6828 7.69033 13.9656V13.9219C8.15415 14.1844 8.69353 14.3484 9.26519 14.3703C8.32674 13.7359 7.71191 12.6531 7.71191 11.4281C7.71191 10.7719 7.88447 10.1703 8.18652 9.6453C9.90163 11.789 12.4797 13.189 15.3705 13.3422C15.3166 13.0797 15.2842 12.8063 15.2842 12.5328C15.2842 10.5859 16.8376 9 18.7684 9C19.7716 9 20.6776 9.42656 21.3141 10.1156C22.1015 9.96251 22.8566 9.66718 23.5254 9.2625C23.2665 10.0828 22.7164 10.7719 21.9937 11.2094C22.6948 11.1328 23.3744 10.9359 24 10.6625C23.5255 11.3625 22.9321 11.9859 22.2526 12.489Z" fill="black"/>
<circle r="14.5" transform="matrix(1 0 0 -1 15.5 15.5)" stroke="black" stroke-width="2"/>
</svg>
