<svg width="31" height="31" viewBox="0 0 31 31" fill="none" xmlns="http://www.w3.org/2000/svg">
<circle r="14.5" transform="matrix(1 0 0 -1 15.5 15.5)" stroke="black" stroke-width="2"/>
<path d="M23.9308 16.045C23.6956 15.3239 22.9101 14.9406 22.1853 15.1759L20.4626 15.749L19.3128 12.3332L21.0356 11.7601C21.7603 11.5248 22.1398 10.743 21.9083 10.0181C21.673 9.29702 20.8876 8.9137 20.1628 9.149L18.4401 9.72209L17.8443 7.93831C17.609 7.21721 16.8236 6.83389 16.0988 7.0692C15.374 7.3045 14.9946 8.08633 15.226 8.81122L15.8218 10.595L12.2777 11.7791L11.6819 9.99535C11.4466 9.27425 10.6612 8.89092 9.9364 9.12623C9.21164 9.36154 8.83218 10.1434 9.06365 10.8683L9.6594 12.652L7.94046 13.2213C7.21569 13.4566 6.83623 14.2385 7.0677 14.9634C7.25743 15.5137 7.79247 15.8742 8.34268 15.897C8.60071 15.9349 8.79803 15.8363 10.5322 15.2594L11.6819 18.6751L9.95917 19.2482C9.2382 19.4835 8.85495 20.2691 9.08642 20.9902C9.27615 21.5405 9.81118 21.9011 10.3614 21.9239C10.6194 21.9618 10.8167 21.8631 12.5509 21.2863L13.1466 23.07C13.3705 23.7114 14.0839 24.1707 14.8921 23.9392C15.6169 23.7038 15.9963 22.922 15.7649 22.1971L15.1691 20.4134L18.7209 19.2254L19.3166 21.0092C19.5405 21.6506 20.2539 22.1098 21.0621 21.8783C21.7869 21.643 22.1663 20.8612 21.9349 20.1363L21.3391 18.3525L23.0619 17.7794C23.7828 17.5517 24.1661 16.7661 23.9308 16.045ZM14.2888 17.8364L13.139 14.413L16.687 13.2251L17.8367 16.6484L14.2888 17.8364Z" fill="black"/>
</svg>
