<svg width="31" height="31" viewBox="0 0 31 31" fill="none" xmlns="http://www.w3.org/2000/svg">
<path d="M22.9995 12.9247C22.9995 9.67073 20.8663 8.71692 20.8663 8.71692C19.7907 8.22314 17.9434 8.01563 16.0254 8H15.9778C14.0592 8.01563 12.2131 8.22314 11.1375 8.71692C11.1375 8.71692 9.00431 9.67073 9.00431 12.9247C9.00431 13.6697 8.98993 14.561 9.01369 15.5055C9.09124 18.6881 9.59779 21.824 12.5414 22.6028C13.8985 22.9615 15.0642 23.0372 16.0028 22.9853C17.7051 22.8915 18.6607 22.3777 18.6607 22.3777L18.6044 21.1433C18.6044 21.1433 17.388 21.5264 16.0222 21.4802C14.6683 21.4339 13.2399 21.3346 13.0211 19.6732C13.0005 19.5188 12.9905 19.3633 12.9911 19.2076C12.9911 19.2076 14.32 19.5326 16.0035 19.6095C17.0328 19.6563 17.9984 19.5488 18.979 19.4326C20.8595 19.2082 22.4967 18.05 22.7024 16.9918C23.0258 15.3261 22.9995 12.9247 22.9995 12.9247ZM20.483 17.1181H18.9214V13.2934C18.9214 12.4871 18.5819 12.0784 17.9033 12.0784C17.1529 12.0784 16.7764 12.5634 16.7764 13.5235V15.6167H15.2236V13.5228C15.2236 12.5628 14.8472 12.0777 14.0967 12.0777C13.4182 12.0777 13.0786 12.4871 13.0786 13.2928V17.1174H11.5171V13.1778C11.5171 12.3721 11.7222 11.7321 12.1343 11.2589C12.5595 10.7852 13.1155 10.5427 13.8065 10.5427C14.6058 10.5427 15.2111 10.8495 15.6114 11.464L15.9997 12.1159L16.3887 11.464C16.7889 10.8495 17.3943 10.5427 18.1935 10.5427C18.8839 10.5427 19.4405 10.7852 19.8658 11.2589C20.2772 11.7321 20.4824 12.3721 20.4824 13.1778V17.1181H20.483Z" fill="black"/>
<circle r="14.5" transform="matrix(1 0 0 -1 15.5 15.5)" stroke="black" stroke-width="2"/>
</svg>
